<svg xmlns="http://www.w3.org/2000/svg" viewBox="0 0 250.39 80.39"><title>main-logo</title><g id="Layer_2" data-name="Layer 2"><g id="Layer_1-2" data-name="Layer 1"><path d="M115.07,75.27a2,2,0,0,1-.89,1.76,3.94,3.94,0,0,1-2.17.57h-.33q0,.94.06,2.48h-1.4q.06-1.44.06-3.4,0-1.8-.06-3.1h.87l.71,0h.91a2.86,2.86,0,0,1,1.6.43A1.45,1.45,0,0,1,115.07,75.27Zm-1.29.27q0-1.07-1.42-1.07a4,4,0,0,0-.75.07q.06.94.06,2.14H112Q113.78,76.7,113.78,75.55Z" style="fill:#64913e;stroke:#39b54a;stroke-miterlimit:10;stroke-width:0.28347px"/><path d="M123.82,73.57q0,1.68,0,3.35,0,3.31-2.71,3.31a2.62,2.62,0,0,1-2-.73,3.91,3.91,0,0,1-.68-2.64q0-1.68,0-3.3h1.41q-.06,1.69-.06,3.25a3.56,3.56,0,0,0,.35,1.88,1.22,1.22,0,0,0,1.08.51,1.23,1.23,0,0,0,1.1-.51,3.69,3.69,0,0,0,.34-1.89q0-1.52-.06-3.24Z" style="fill:#64913e;stroke:#39b54a;stroke-miterlimit:10;stroke-width:0.28347px"/><path d="M132.83,80.07h-1.48a9.81,9.81,0,0,0-.89-2.18,1.17,1.17,0,0,0-1-.41h-.55q0,1.28,0,2.59h-1.39q.06-1.51.06-3.4t-.06-3.1h.86l.63,0h.88q2.29,0,2.29,1.57a1.76,1.76,0,0,1-1.31,1.73v.07a1.56,1.56,0,0,1,.88.79A17.23,17.23,0,0,1,132.83,80.07ZM131,75.48q0-1-1.28-1a4.4,4.4,0,0,0-.83.07q.05.77.06,2h.46Q131,76.58,131,75.48Z" style="fill:#64913e;stroke:#39b54a;stroke-miterlimit:10;stroke-width:0.28347px"/><path d="M140.37,79l0,1.1h-4.25q.07-1.51.07-3.4t-.07-3.1h4.05l-.05,1.09q-1.5-.08-2.72-.08,0,.69,0,1.64,1,0,2.23-.05v1q-1.17,0-2.23,0,0,1,0,1.9Q138.82,79.05,140.37,79Z" style="fill:#64913e;stroke:#39b54a;stroke-miterlimit:10;stroke-width:0.28347px"/><path d="M154.55,76.7a3.58,3.58,0,0,1-.94,2.54,3,3,0,0,1-2.32,1,2.93,2.93,0,0,1-2.21-.93A3.26,3.26,0,0,1,148.2,77a3.58,3.58,0,0,1,.94-2.54,3,3,0,0,1,2.32-1,2.94,2.94,0,0,1,2.21.92A3.26,3.26,0,0,1,154.55,76.7Zm-1.38.14a2.58,2.58,0,0,0-.53-1.69,1.64,1.64,0,0,0-1.32-.65,1.52,1.52,0,0,0-1.24.65,2.61,2.61,0,0,0-.51,1.65,2.57,2.57,0,0,0,.54,1.69,1.64,1.64,0,0,0,1.31.65,1.52,1.52,0,0,0,1.24-.66A2.61,2.61,0,0,0,153.17,76.84Z" style="fill:#64913e;stroke:#39b54a;stroke-miterlimit:10;stroke-width:0.28347px"/><path d="M163.33,80.07h-1.48a9.81,9.81,0,0,0-.89-2.18,1.16,1.16,0,0,0-1-.41h-.55q0,1.28,0,2.59h-1.39q.07-1.51.07-3.4t-.07-3.1h.86l.63,0h.88q2.29,0,2.29,1.57a1.76,1.76,0,0,1-1.31,1.73v.07a1.56,1.56,0,0,1,.88.79A17.33,17.33,0,0,1,163.33,80.07Zm-1.87-4.59q0-1-1.28-1a4.41,4.41,0,0,0-.83.07q.06.77.06,2h.46Q161.46,76.58,161.46,75.48Z" style="fill:#64913e;stroke:#39b54a;stroke-miterlimit:10;stroke-width:0.28347px"/><path d="M171.72,79.9a8.27,8.27,0,0,1-2,.3,3.41,3.41,0,0,1-2.6-.94,3.21,3.21,0,0,1-.89-2.28,3.44,3.44,0,0,1,3.64-3.5,6.23,6.23,0,0,1,1.42.14l-.16,1.18a5.65,5.65,0,0,0-1.41-.2,1.9,1.9,0,0,0-1.57.65,2.44,2.44,0,0,0-.52,1.58,2.54,2.54,0,0,0,.58,1.66,2,2,0,0,0,1.6.71,4.22,4.22,0,0,0,.66-.06,8,8,0,0,1-.08-1.09,8,8,0,0,0-.1-1.21h1.41q0,.77,0,1.55Q171.68,78.94,171.72,79.9Z" style="fill:#64913e;stroke:#39b54a;stroke-miterlimit:10;stroke-width:0.28347px"/><path d="M181,80.07h-1.6A10.53,10.53,0,0,0,179,78.2h-2.31a9.66,9.66,0,0,0-.47,1.87h-1.5q0-.19,1.17-3.19a25,25,0,0,0,1.17-3.3h1.89A27.46,27.46,0,0,0,180,76.83,28.53,28.53,0,0,1,181,80.07Zm-2.31-2.82a28.07,28.07,0,0,1-.85-2.78h-.08q0,.19-.88,2.78Z" style="fill:#64913e;stroke:#39b54a;stroke-miterlimit:10;stroke-width:0.28347px"/><path d="M189.57,80.07h-1.23A12.15,12.15,0,0,0,187,77.91a11.88,11.88,0,0,1-1.64-2.82h-.08a17.57,17.57,0,0,1,.12,2q0,1.23.07,3h-1.23q.08-1.55.08-3.4t-.08-3.1h1.48a9.37,9.37,0,0,0,1.23,2.11,12.44,12.44,0,0,1,1.51,2.66h.07a18.89,18.89,0,0,1-.12-2q0-1.35-.07-2.77h1.25q-.07,1.24-.07,3.1T189.57,80.07Z" style="fill:#64913e;stroke:#39b54a;stroke-miterlimit:10;stroke-width:0.28347px"/><path d="M194.84,80.07h-1.41q.06-1.55.06-3.4t-.06-3.1h1.41q-.06,1.26-.06,3.1T194.84,80.07Z" style="fill:#64913e;stroke:#39b54a;stroke-miterlimit:10;stroke-width:0.28347px"/><path d="M203.35,78.89,203.26,80a6,6,0,0,1-1.4.17,3.42,3.42,0,0,1-2.61-.95,3.22,3.22,0,0,1-.9-2.3,3.49,3.49,0,0,1,1-2.44,3.36,3.36,0,0,1,2.61-1,4.62,4.62,0,0,1,1.15.14l-.17,1.15a3.68,3.68,0,0,0-1.13-.19,1.78,1.78,0,0,0-1.51.64,2.47,2.47,0,0,0-.49,1.56,2.43,2.43,0,0,0,.59,1.63,2,2,0,0,0,1.64.69A4.8,4.8,0,0,0,203.35,78.89Z" style="fill:#64913e;stroke:#39b54a;stroke-miterlimit:10;stroke-width:0.28347px"/><path d="M87.78,33.58a2.43,2.43,0,0,1,.44,1.15,1.43,1.43,0,0,1-.2.76.61.61,0,0,1-.54.33c-.42,0-.76-.36-1-1.07A6.31,6.31,0,0,1,86,32.49a4.53,4.53,0,0,1,1.31-3.18A4.38,4.38,0,0,1,90.7,27.9a2.2,2.2,0,0,1,2.05,1.31,6.36,6.36,0,0,1,.68,3q0,1.66-.09,3.13t-.17,2.26q-.07.79-.3,2.52c-.15,1.15-.25,1.94-.3,2.38q3,0,6.22-3A50.67,50.67,0,0,1,100,31.14a15.29,15.29,0,0,1,1.61-4.24,2.23,2.23,0,0,1,1.76-1.22,1.84,1.84,0,0,1,1.55.85,3.39,3.39,0,0,1,.61,2q0,4.37-3.89,9.44-.22,2.92-.22,5.38a15.91,15.91,0,0,0,.72,4.77,20.21,20.21,0,0,1,.72,2.59c0,.18-.14.33-.41.44a2.36,2.36,0,0,1-.89.17,3.22,3.22,0,0,1-2.11-.67,4.3,4.3,0,0,1-.67-2.26,27,27,0,0,1-.26-3.61q0-1.68.11-3.65Q95.4,44,92.44,44.11q0,.52-.07,1.72t-.11,1.78a8.18,8.18,0,0,1-.3,1.31,1.68,1.68,0,0,1-1.78,1.37c-.57,0-.85-.49-.85-1.46a49,49,0,0,1,.44-5.09,2.5,2.5,0,0,1-1.67-2.48,3.61,3.61,0,0,1,.67-2.2,2,2,0,0,1,1.63-.91q.33-3.41.33-5.26,0-3.33-1-3.33A2.11,2.11,0,0,0,87.33,32,3,3,0,0,0,87.78,33.58Zm2.52,5.76a1.16,1.16,0,0,0-.52,1,1.71,1.71,0,0,0,.29,1Zm14.1-10.14a3,3,0,0,0-.17-1c-.11-.31-.25-.46-.43-.46q-1,0-1.89,8Q104.39,32,104.39,29.2Z" style="fill:#3f3616"/><path d="M114.08,43.95a8.13,8.13,0,0,0,1.57-.64l.67-.41.34-.2a.51.51,0,0,1,.23-.09c.15,0,.23.09.23.26s-.29.47-.88.89a9.78,9.78,0,0,1-2.19,1.15,6.45,6.45,0,0,1-1.5,3.86,4.7,4.7,0,0,1-3.72,1.48,3,3,0,0,1-2.7-1.41,5.8,5.8,0,0,1-.94-3.29A6.29,6.29,0,0,1,106.33,42a3.35,3.35,0,0,1,2.88-1.67,3.16,3.16,0,0,1,1.89-.57,2.64,2.64,0,0,1,2,1.16A4.81,4.81,0,0,1,114.08,43.95Zm-1.84,1.45-1,.06a3.27,3.27,0,0,1-2.21-.78A2.25,2.25,0,0,1,108.1,43a3.83,3.83,0,0,1,.31-1.62q-1.22,1-1.22,3.8a6.12,6.12,0,0,0,.57,2.6A1.87,1.87,0,0,0,109.55,49a2.15,2.15,0,0,0,1.9-1A5.27,5.27,0,0,0,112.24,45.39Zm-1.76-4.71a.8.8,0,0,0-.71.41,1.68,1.68,0,0,0-.26.89,2.19,2.19,0,0,0,.72,1.7,2.44,2.44,0,0,0,1.69.65h.34a8.44,8.44,0,0,0-.47-2.53Q111.39,40.68,110.48,40.69Z" style="fill:#3f3616"/><path d="M123.42,39c.43.06.45.09.51.48s.09.85.11,1.25c.11,1.22.09,2.41.09,3.61,0,.59.06,1.19,0,1.79a7.3,7.3,0,0,1,.06,1.11c.08.26,0,.57.06.82s.06.54.11.82.14.57.26.85.12.4.17.63c0,0,.06.09.09.11a15.11,15.11,0,0,1-.28-1.65c.14.09.2.17.2.28a.58.58,0,0,0,.09.43.53.53,0,0,1,.06.23c.09.31.2.6.25.91a1.67,1.67,0,0,1,.06.42l.17.14a.65.65,0,0,0,.37.17.52.52,0,0,0,.43-.2c.11-.23.28-.4.28-.65a12.06,12.06,0,0,0,.51-1.73c.17-.57.31-1.14.48-1.73s.26-.91.4-1.36a8.42,8.42,0,0,0,.31-1.48.49.49,0,0,1,0-.2.53.53,0,0,0,0-.51c.11-.17.2-.28.28-.4a1.26,1.26,0,0,1,.31,0v.8c0,.34-.09.68-.11,1a18.25,18.25,0,0,1-.57,2.75c-.09.37-.2.71-.26,1.08a5.83,5.83,0,0,1-.28,1,6.22,6.22,0,0,0-.23,1.05,9.79,9.79,0,0,1-.31,1.13.7.7,0,0,1-.11.2c-.31.23-.51.6-.94.71-.28.34-.68.23-1,.26a.61.61,0,0,1-.51-.23c-.17-.11-.31-.25-.48-.37a1.92,1.92,0,0,1-.74-.91c-.17-.4-.26-.82-.4-1.22,0-.09-.09-.17-.11-.26-.23.06-.2-.17-.26-.28a.92.92,0,0,1-.09-.4,1.83,1.83,0,0,0-.11-.54.1.1,0,0,1,0-.09c.09-.34-.11-.66-.11-1,0,.06,0,.11-.09.23a1.21,1.21,0,0,1,0-.57v-.2s-.09,0-.09,0,0-.17.14-.28a.35.35,0,0,1-.11-.51l.09-.2c-.06-.11-.14-.2-.14-.31a4.78,4.78,0,0,0-.08-.62v-.11a4.65,4.65,0,0,0,0-1.25v-.31c-.14,0-.14.11-.2.17-.2.54-.4,1-.62,1.56-.29.68-.57,1.36-.88,2a5.17,5.17,0,0,1-.37.91,3.26,3.26,0,0,1-.79.85.21.21,0,0,0-.11.06,3,3,0,0,1-1,.14,2.23,2.23,0,0,1-.74-.2,1.93,1.93,0,0,1-.94-1c0-.37-.2-.62-.34-.94a2.89,2.89,0,0,1-.28-1.11,1.7,1.7,0,0,1-.06-.4,9.37,9.37,0,0,1,.11-2.36c0-.06,0-.09,0-.14A3,3,0,0,1,115.9,42c.09-.31.23-.62.34-.93a1.14,1.14,0,0,1,.2-.31.19.19,0,0,1,.23-.11c.28,0,.57.09.85.14a.19.19,0,0,1,.14.11,1.74,1.74,0,0,1,.2.82c-.06.51-.09,1-.11,1.56A8.9,8.9,0,0,0,117.8,45c.06.45.09.88.11,1.3a3.67,3.67,0,0,0,.43,1.48.56.56,0,0,0,.17.26.41.41,0,0,0,.57,0,2.85,2.85,0,0,0,.31-.48,11.26,11.26,0,0,0,.68-1.73c.23-.65.4-1.3.57-2,.25-.91.54-1.82.79-2.69a8.47,8.47,0,0,1,.51-1.14,1,1,0,0,0,.2-.4,1.12,1.12,0,0,1,.37-.51c.14-.2.28-.2.54-.06,0,0-.06.06-.09,0s.06,0,.06,0A.4.4,0,0,1,123.42,39Zm-5.7,9.14-.2-.2C117.55,48.2,117.55,48.2,117.72,48.17Zm.37.54.4.09C118.31,48.63,118.26,48.63,118.09,48.71Zm4-5.73h0v0Zm0,5.65c0,.05,0,.05,0,0v0A0,0,0,0,1,122.14,48.63Zm.54-8.57s0,.05.06.05,0,0,.06,0,0-.05,0-.09S122.71,40.06,122.68,40.06Zm1.84,7.26c.06.06.09.08.09.11v.34A.48.48,0,0,1,124.53,47.32Zm0,.88c.14.14.14.14,0,.29Z" style="fill:#3f3616"/><path d="M135.79,41.82c.14-.08.28-.23.45-.34.28.06.37.11.37.28a.62.62,0,0,1-.23.51,1.06,1.06,0,0,0-.42.37c-.11.14-.31.17-.4.31a9,9,0,0,0-1.62,1.47c-.2.2-.37.4-.54.6s-.14.06-.2.08-.09.09-.09.12a.57.57,0,0,1-.26.45.48.48,0,0,0-.11.2,3.19,3.19,0,0,0,.2.48c.06.06.17.06.2.14s.26.26.26.45c0,0,0,.09.06.09s.23.14.2.31.2.17.11.31,0,.06,0,.09.25.08.2.25.08.2.14.28a1,1,0,0,1,.08.31,2.31,2.31,0,0,0,.17.48.83.83,0,0,1,.08.31c0,.06,0,.11.06.17a.25.25,0,0,1,0,.2s0,.11,0,.14.08.31.11.48a.94.94,0,0,1,0,.48,1.87,1.87,0,0,0,0,.4.31.31,0,0,1-.06.23.26.26,0,0,0,0,.28.3.3,0,0,1,0,.34c-.09.2,0,.43-.2.6a.05.05,0,0,0,0,.09c.08.26-.14.45-.2.68,0,0-.06.06-.08.09s-.09.11-.09.2a.56.56,0,0,1-.17.31.79.79,0,0,0-.31.62c0,.09,0,.17-.06.26l-.17.09c0,.06,0,.14,0,.2s-.08.05-.11.11-.26.2-.2.37c-.17.2-.34.4-.51.57a4.16,4.16,0,0,1-.59.37,4.44,4.44,0,0,1-1.36.37,2.49,2.49,0,0,1-.45,0,5.71,5.71,0,0,1-.65-.2.59.59,0,0,1-.37-.2s0-.06,0-.11v0s0-.06,0-.09a1.55,1.55,0,0,0-.54-.6,1,1,0,0,1-.48-.65,4.39,4.39,0,0,1-.11-.88,5.63,5.63,0,0,1,.42-2.16c0-.09,0-.2.06-.28s.14-.43.2-.65a5.64,5.64,0,0,1,.23-.65,8,8,0,0,1,.62-1.42,11.32,11.32,0,0,1,.68-1.16c.14-.25.31-.48.45-.71a1,1,0,0,0-.37-.51l-.17-.2a2.05,2.05,0,0,0-.43-.42,4.43,4.43,0,0,1-.63-.62.38.38,0,0,0-.2-.17l-.08-.05c-.14-.14-.17-.34-.34-.48a.64.64,0,0,1-.28-.45c-.2-.17-.14-.46-.34-.63s-.14-.23-.14-.37a3,3,0,0,1,0-1c0-.11,0-.26,0-.4s0-.11,0-.17a1.24,1.24,0,0,0,.11-.79,1.21,1.21,0,0,1,0-.31,1.25,1.25,0,0,1,.23-.31c.08-.06.08-.26.14-.37s.28-.23.34-.42a5.52,5.52,0,0,0,.51-.8c.06-.09.11-.14.17-.23a.71.71,0,0,1,.68-.25c.06,0,.14.08.2.11a.25.25,0,0,1,0,.14c-.14.23-.14.23.09.4a2.71,2.71,0,0,1-.2.63,2.2,2.2,0,0,0-.2.45.55.55,0,0,0,0,.31.65.65,0,0,1-.06.4,2.68,2.68,0,0,0-.17,1.33.21.21,0,0,0,.06.17.32.32,0,0,1,.09.31c-.06.14.06.23.06.34a3.64,3.64,0,0,0,.23.45c.14.28.43.43.65.62a.55.55,0,0,1,.25.31l-.25-.09s0-.09-.06-.11h-.08a.1.1,0,0,0,.11.11,1.51,1.51,0,0,0,.28.31c.28.28.6.57.91.85.06.06.08.11.14.14s.11,0,.14-.06a6.8,6.8,0,0,0-.79-.76,5.41,5.41,0,0,1-.43-.4s.09,0,.11,0a4.77,4.77,0,0,1,.43.29,3.42,3.42,0,0,0,.34.28,6.06,6.06,0,0,1,.48.4,6.29,6.29,0,0,0,.77-.77l1-1.11c.06-.08.14-.14.17-.25a1.65,1.65,0,0,1,.28-.34,1.12,1.12,0,0,1,.28-.11c0-.2,0-.2.14-.23a.53.53,0,0,0,.2-.06A3.33,3.33,0,0,1,135.79,41.82Zm-8.2-.28s0,.06,0,.11h0Zm1.16,14.87-.06-.06,0,0,.06.06Zm.26.14s0,0-.06,0h0l.09,0v0A.09.09,0,0,1,129,56.54Zm3-5.79-.08-.68a2.81,2.81,0,0,1-.11-.71.16.16,0,0,0,0-.11,1.66,1.66,0,0,1-.2-.51.89.89,0,0,0-.34-.51c-.14.29-.31.57-.42.82s-.2.51-.34.77-.2.51-.31.77a11.41,11.41,0,0,0-.71,2.55,4.21,4.21,0,0,0-.06.6,5.59,5.59,0,0,0,.09.74c0,.26.11.34.4.37a1.3,1.3,0,0,0,.85-.28,2,2,0,0,0,.71-.77,5.44,5.44,0,0,0,.28-.71,5,5,0,0,0,.25-1.42.71.71,0,0,1,.17-.48A.76.76,0,0,1,132,50.76Zm-1.11-2.21,0,0v0h.06A.1.1,0,0,1,130.88,48.54Zm.14-.23a.11.11,0,0,0,0,.09.1.1,0,0,1,0-.09H131Zm1.67-1.87a0,0,0,0,0,0,0h0s0,0,0,0Zm.79,2.24v.09c.06.43.09.88.17,1.31s.14.88.2,1.3a2.7,2.7,0,0,0,.09-.48c0-.17-.06-.31,0-.48a1.6,1.6,0,0,0-.06-.51,5.8,5.8,0,0,0-.14-.68,2.59,2.59,0,0,0-.14-.43s-.06,0-.09,0Zm1.45-6.38a.22.22,0,0,1,0-.14v.26C134.91,42.39,134.91,42.36,134.94,42.3Zm.08-.17s0,0,0,.06a0,0,0,0,0,0,0A.09.09,0,0,0,135,42.13Zm.37-.23s0,0,0-.06,0,0,0,0v.09Z" style="fill:#3f3616"/><path d="M139.88,41a.37.37,0,0,0,.17.2c.09.11.2.23.28.34a4.75,4.75,0,0,1,0,.65,1.67,1.67,0,0,1-.28.71c-.25.45-.54.88-.79,1.3a.51.51,0,0,0-.11.26.54.54,0,0,1-.2.4,17.82,17.82,0,0,1-1.36,1.56c-.11.12-.23.2-.34.31a2.88,2.88,0,0,0,.85,1.36,1.64,1.64,0,0,0,.94.46,2.76,2.76,0,0,0,1.19-.12c2.07-1.25,2.92-3.92,3.12-4.34a2.65,2.65,0,0,0,.4-.79c.25,0,.37,0,.4.17.17.31-.17,1.33-.37,1.67-1.36,3-2.21,3.86-3.89,4.51a.32.32,0,0,1-.31,0,1.15,1.15,0,0,0-.31,0,2.67,2.67,0,0,1-1.53-.34c-.26-.17-.51-.29-.77-.46l-.57-.51c-.09.06-.06.11,0,.17a2.55,2.55,0,0,0,.17.23,1.07,1.07,0,0,1-.51-.57c-.14-.23-.28-.45-.45-.68a4,4,0,0,1-.48-1.08,4.45,4.45,0,0,1,0-1.5,6.85,6.85,0,0,1,.71-2.47,4.6,4.6,0,0,1,.71-1.05c0-.06.08-.11.11-.17a.27.27,0,0,1,.23-.2.17.17,0,0,0,.17-.23c0-.11.09-.11.14-.14v0s0,0,.06,0l0,0a.1.1,0,0,0-.06,0h0c0-.14.06-.17.17-.14v0a.18.18,0,0,0,.17.14c.06,0,.09,0,.11-.06a5.05,5.05,0,0,1,1.11-.23,2.91,2.91,0,0,1,.45-.08,1.09,1.09,0,0,1,1.14.48.84.84,0,0,1,.08.54,3,3,0,0,1-.14-.31,1.35,1.35,0,0,0-.26-.31,1.07,1.07,0,0,0-.37-.17.22.22,0,0,0,0,.11c-.14,0-.31-.09-.48,0,.23.37.31.43.59.37,0-.12-.09-.23-.11-.34A1.4,1.4,0,0,1,139.88,41Zm-3.29,5.62s-.11,0-.14,0,0,.28.23.31C136.67,46.76,136.67,46.67,136.58,46.58Zm-.14-.62,0,0s0,.06,0,.09a0,0,0,0,0,0,0S136.44,46,136.44,46Zm.79,1.9c0-.06,0-.11,0-.17a.28.28,0,0,1-.17-.26,1.12,1.12,0,0,1-.2-.17s0,0-.06,0,0,.06,0,.09.09.14.26.06a.17.17,0,0,0,0,.11c0,.14,0,.17.2.14C137.15,47.75,137.12,47.83,137.24,47.86Zm0-2.5c.2-.23.4-.48.6-.74a5.4,5.4,0,0,1,.37-.51,12.24,12.24,0,0,0,1-1.65,1.92,1.92,0,0,0,.17-.82.38.38,0,0,0-.57-.25c-.2.11-.43.2-.54.45,0,.06-.11.11-.17.17a2.57,2.57,0,0,0-.31.45,4.75,4.75,0,0,1-.23.57c-.2.25-.17.6-.31.85,0,.06,0,.09,0,.14,0,.31-.06.65-.08,1a1.33,1.33,0,0,0,0,.34A.11.11,0,0,0,137.24,45.36Zm.09-4.91v0c0-.08,0-.17.09-.2l.23-.08h0C137.63,40.4,137.46,40.43,137.32,40.46Zm.28-.25h0s.09-.06.14-.12h0C137.75,40.17,137.72,40.23,137.6,40.2Zm.43-.09c-.09,0-.17,0-.28,0h0C137.86,40.09,137.95,40,138,40.11Zm0-.05a0,0,0,0,0,0,0l0,0v0Zm1.56,1.28a.68.68,0,0,0,.11.26C139.76,41.39,139.76,41.39,139.59,41.33Zm.31.37c-.17.17-.14.34-.11.57A.61.61,0,0,0,139.9,41.7Z" style="fill:#3f3616"/><path d="M165.41,41.88l.65-.14a2.69,2.69,0,0,0,.51-.2c.11-.09.23-.14.28-.28a.47.47,0,0,1,.2-.2c.06.11.11.17.17.28a.22.22,0,0,1,0,.28,6.31,6.31,0,0,1-.68.51,6.62,6.62,0,0,1-1.93.62l-.23.09c-.09,0-.14,0-.2,0a2.21,2.21,0,0,0-.85.09l-.06.06a5.74,5.74,0,0,0,0,.71c0,.23-.06.43-.09.65,0,.06,0,.14,0,.2s0,.4-.05.6c-.14.45-.34.94-.51,1.42a5.28,5.28,0,0,1-.71,1.22.82.82,0,0,1-.14.2,1.16,1.16,0,0,1-.2.31,3.74,3.74,0,0,1-.37.26s-.09-.05-.14-.11a1.18,1.18,0,0,0-.4.37,1,1,0,0,1-.77.46.82.82,0,0,0-.26,0,.61.61,0,0,1-.54,0,4.49,4.49,0,0,1-.65-.28,2,2,0,0,1-.54-.43,6,6,0,0,1-.71-1.16c-.06-.11-.11-.25-.17-.37a.21.21,0,0,1-.06-.14c0-.2-.08-.4-.08-.59s0-.68.06-1.05a5.51,5.51,0,0,1,.37-1.28,1.87,1.87,0,0,1,.14-.34A4.68,4.68,0,0,1,158.6,42a4.1,4.1,0,0,0,.4-.37,3.7,3.7,0,0,1,.85-.54.74.74,0,0,0-.12-.42,1.57,1.57,0,0,1-.11-.71,1.13,1.13,0,0,1,.48-1c.11-.06.17-.2.26-.31a.55.55,0,0,1,.77-.14,4.64,4.64,0,0,1,.54.29,2.43,2.43,0,0,1,1,.93c.14.23.26.48.37.71a2.14,2.14,0,0,1,.14.74c0,.2,0,.43.06.63a.4.4,0,0,0,.06.2A4.48,4.48,0,0,0,165.41,41.88ZM160.84,48a5.38,5.38,0,0,0,.85-2.35l.34-2.53a.42.42,0,0,0,0-.37,3.13,3.13,0,0,1-.43-.25,1.25,1.25,0,0,0-.48-.23,2,2,0,0,0-1,1.22,14.07,14.07,0,0,0-.43,1.53v.08c.06.12,0,.23,0,.37s-.08.23-.11.34,0,.23,0,.34a3.73,3.73,0,0,0-.06,1,1.33,1.33,0,0,0,.09.57.82.82,0,0,0,.31.45.79.79,0,0,0,.62.11.21.21,0,0,1,.14,0A1.73,1.73,0,0,0,160.84,48Zm1.22-6.73a9.07,9.07,0,0,0-.28-1.19,1.28,1.28,0,0,0-.77-.85.27.27,0,0,0-.29,0,2.21,2.21,0,0,0,.45,1.5,1.79,1.79,0,0,0,.91.79A.87.87,0,0,0,162.06,41.28Z" style="fill:#3f3616"/><path d="M164.9,48.94a3.13,3.13,0,0,1,0-1A4.1,4.1,0,0,1,164.9,48.94Zm5.22-2.44c.2.48.43,1,.62,1.48a4.13,4.13,0,0,1,.23.85c0,.17.2.31.11.51l.06.06c.14.09.14.26.14.4,0,.68,0,1.36,0,2v.74a.25.25,0,0,1,0,.2,16,16,0,0,1-.43,2.3c-.08.28-.14.57-.23.85,0,.11,0,.11.06.34a9.6,9.6,0,0,1-1.22,2.41c-.31,0-.6,0-.68.4a1.12,1.12,0,0,1-1.11-.17,1.5,1.5,0,0,1-.6-.6,3.24,3.24,0,0,1-.57-.68.61.61,0,0,1-.14-.23c-.11-.25-.25-.51-.4-.77s-.28-.71-.42-1.08a.31.31,0,0,1,0-.23s0-.11,0-.14a1.07,1.07,0,0,1-.2-.57c-.09-.4-.11-.8-.2-1.19a3,3,0,0,1-.06-.88.48.48,0,0,0,0-.2.63.63,0,0,1,0-.6.09.09,0,0,0,0-.11c-.14-.14-.06-.34-.09-.51a3.07,3.07,0,0,1,0-.51.42.42,0,0,0,0-.2c-.09-.14,0-.26.06-.37a.64.64,0,0,1-.11-.57c.14-.06-.06-.14,0-.2h.26c0-.06,0-.12,0-.14S165,49.05,165,49c.06-.28,0-.57.09-.85,0,0,0-.09,0-.11a5.9,5.9,0,0,1,0-1.42c0-.57.05-1.14.11-1.7a16.24,16.24,0,0,1,.71-3.29c.05-.14.08-.31.14-.46a13.08,13.08,0,0,1,.85-2.3c.17-.37.31-.77.51-1.13s.4-.74.6-1.08c.09-.14.17-.23.23-.34a3,3,0,0,1,.65-.88,1.74,1.74,0,0,1,.26-.23.29.29,0,0,1,.34-.06,3.15,3.15,0,0,0,.74.2.6.6,0,0,1,.57.43,1.81,1.81,0,0,1,.11,1c-.08.4-.2.8-.31,1.22a6.52,6.52,0,0,0-.23.79,9.4,9.4,0,0,1-.54,1.73c-.23.51-.43,1-.68,1.5s-.45.85-.65,1.28-.43.82-.62,1.25c.09.06.11.11.17.14a3.65,3.65,0,0,1,.8.46,1.77,1.77,0,0,0,1,.31,4.34,4.34,0,0,0,.88-.11c.26-.06.48-.14.71-.17a2.91,2.91,0,0,0,1.45-.79,5.27,5.27,0,0,0,.65-.74,4.22,4.22,0,0,0,.57-1s.06-.06.06-.09c.14-.23.17-.23.48-.17,0,.14-.06.25,0,.4a.49.49,0,0,1-.08.51c-.34.51-.65,1-1,1.5a3,3,0,0,1-1.62,1.13,12,12,0,0,1-1.84.43C170.09,46.44,170.09,46.47,170.12,46.5Zm-5.25.51c.11,0,.11.06.09.09a2.22,2.22,0,0,1-.06.43h0Zm.09-.57h0v.12h0Zm.11-.77,0,0v0Zm.45,7.86a.25.25,0,0,1,0-.14,3.42,3.42,0,0,1-.06-.54,12.37,12.37,0,0,0-.11-2.27c0-.09,0-.2-.06-.31l-.09-.34a.55.55,0,0,0-.06.28c0,.45.06.88.09,1.31s.11,1.11.14,1.67c0,.09,0,.17.11.2Zm.17,1.19c0-.09.08-.11.08-.14s0-.08-.11-.11A.88.88,0,0,0,165.69,54.73Zm.11.2v0a0,0,0,0,0,0,0s0,0,0,0A0,0,0,0,0,165.81,54.93Zm1.82-4.43a1.26,1.26,0,0,0,0-.31C167.45,50.36,167.48,50.42,167.62,50.5Zm0-.6h0s0,.06,0,.06V49.9Zm2.24,6.61a5.56,5.56,0,0,1,.17-.65,3.7,3.7,0,0,0,.14-.54,10.63,10.63,0,0,0,.2-1.39c0-.54.08-1.08.11-1.62a12.39,12.39,0,0,0-.11-2.3,4.73,4.73,0,0,0-.54-1.5c-.2-.32-.45-.65-.62-1a3.81,3.81,0,0,0-.48-.71c-.06-.09-.14-.2-.23-.2a1.35,1.35,0,0,1-.48-.31h-.14a6.82,6.82,0,0,0,0,1.05.55.55,0,0,1-.06.42c-.14.26,0,.51,0,.74s0,.31,0,.48a5.39,5.39,0,0,0-.06.71,1.38,1.38,0,0,0,0,.48c.06.17,0,.31,0,.45a3.39,3.39,0,0,1,0,1.08.48.48,0,0,0,0,.2c.11.37.11.77.2,1.16,0,.06-.09.14-.09.2s.11.14.14.2.06.17,0,.2,0,.23,0,.34a4.94,4.94,0,0,0,.23.91,9.94,9.94,0,0,0,.29,1,.72.72,0,0,0,.23.62,1.72,1.72,0,0,1,.2.4,1.49,1.49,0,0,0,.4.57A3.72,3.72,0,0,0,169.83,56.52ZM168,42.64a1,1,0,0,0,.14-.23c.17-.43.34-.85.51-1.25a28.27,28.27,0,0,0,1.08-3.07.41.41,0,0,1,.06-.2,3.68,3.68,0,0,0,.31-1.45,2.13,2.13,0,0,0-.06-.45.22.22,0,0,0-.23-.17,4.24,4.24,0,0,0-.28.62,2.29,2.29,0,0,1-.14.43c-.09.2-.2.4-.28.63a16.79,16.79,0,0,0-1,3.72c-.06.26-.11.48-.17.74a.55.55,0,0,0,0,.2c0,.17,0,.31,0,.45S168,42.61,168,42.64Zm5.31,2.16a2.41,2.41,0,0,0-.6.45s0,.08,0,.14-.23,0-.31.23a2.68,2.68,0,0,0,.28-.26A2.29,2.29,0,0,0,173.33,44.8Z" style="fill:#3f3616"/><path d="M203.94,32.79a2.86,2.86,0,0,0,0,.48c.06.06.09,0,.14,0s.06.09,0,.09a.47.47,0,0,0-.09.34c0,.11-.06.23,0,.34-.14.4,0,.85-.14,1.25a.09.09,0,0,0,0,.06,1.13,1.13,0,0,1-.14.74l.08.17c0,.06-.11.09-.11.14a5.93,5.93,0,0,1-.2.65l-.08.17a1.44,1.44,0,0,0-.28.6,1.84,1.84,0,0,1-.23.48s0,.06-.06.09-.26.11-.26.28-.17.23-.14.37,0,.06-.06.09a.35.35,0,0,0-.17.23c0,.11-.14.14-.14.28s-.08.08-.11.11-.31.17-.28.37-.11.28-.28.34-.09.06-.11.11a1.35,1.35,0,0,1-.4.48s-.11.06-.11.09-.2.17-.26.31a.43.43,0,0,1-.43.34c0,.08,0,.17-.06.25a.36.36,0,0,1-.14.14l-.68.68c-.14.14-.31.28-.45.42a.84.84,0,0,1-.34.2c-.09.09-.14.2-.23.28a1.19,1.19,0,0,1-.25.17s-.11,0-.14.08-.26.2-.43.26a.69.69,0,0,1-.48.4.81.81,0,0,0-.48.31.75.75,0,0,1-.26.14,1.41,1.41,0,0,0-.45.23,1.23,1.23,0,0,1-.79.31,1.55,1.55,0,0,1-.17.22,2.89,2.89,0,0,1-.43.2l-.2.09a1.85,1.85,0,0,1-.62.31s-.06,0-.09,0-.17.26-.34.26-.26.14-.37.2l-.26.09-.82.43a2.51,2.51,0,0,1-.06.48v.11a.4.4,0,0,1,0,.4c-.06.08,0,.17,0,.25s.06.09,0,.11,0,.31,0,.46v.08c-.06.34,0,.68-.09,1,0,.05,0,.11,0,.17a.73.73,0,0,1-.11.68.5.5,0,0,1,.11.25,1.75,1.75,0,0,1-.11.77s0,.09,0,.11,0,.11,0,.14a.78.78,0,0,0-.14.51v.26a.36.36,0,0,1-.25.37s-.06.06-.09.06,0,.17-.06.23a.57.57,0,0,1-.48-.11l-.23.09a.48.48,0,0,1-.57-.45,2.56,2.56,0,0,0,0-.48c0-.12,0-.2-.09-.26a.37.37,0,0,1-.11-.28c0-.82.06-1.62.08-2.41q0-.93.09-1.87c0-.28-.14-.43-.43-.4H189a.23.23,0,0,1-.23-.14.22.22,0,0,1,.06-.23,1.66,1.66,0,0,1,.54-.31.13.13,0,0,0-.14-.14,1.19,1.19,0,0,0-.31.06,2.22,2.22,0,0,1-.4.14.37.37,0,0,1-.17,0l-.11-.08s0-.11.06-.11a.77.77,0,0,1,.26-.14c.11-.06.25-.09.37-.14a.88.88,0,0,1,.43-.43c.06-.06.12-.2.26-.11a1.18,1.18,0,0,1,.06-.2c-.23.09-.43.14-.6.2a1.4,1.4,0,0,1-.28.09.41.41,0,0,1-.31,0c-.09-.06-.09-.17-.09-.31s.26-.14.4-.11a.57.57,0,0,1,.4-.17v-.09c-.17-.17-.2-.17,0-.31a1.07,1.07,0,0,1,.23-.14c.2-.06.23-.17.23-.34V43.46c0-.31,0-.6,0-.91V41.7a1.57,1.57,0,0,1,0-.37c0-.11,0-.25,0-.4s-.09-.17,0-.23,0-.17-.06-.23a.1.1,0,0,0,0-.06c0-.11.14-.2.06-.26s0-.17,0-.26,0-.2.26-.23a2.44,2.44,0,0,0,.06.46c.11,0,.17,0,.17-.12s0-.23,0-.31a.83.83,0,0,1,.09-.28s.06-.06.09-.09a1.08,1.08,0,0,1,.28,0,.19.19,0,0,1,.2.11c.09.14.11.31.2.48a.91.91,0,0,1,0,.4,4.22,4.22,0,0,0,0,.62c.06.08.14.08.14.23s.06.31.06.48a1.47,1.47,0,0,0,.12.6s0,.08,0,.11a3.52,3.52,0,0,0,0,.54,1.67,1.67,0,0,0,.06.4s0,.11,0,.14a1.66,1.66,0,0,1-.11.2.6.6,0,0,1,.17.11.11.11,0,0,1,0,.09.19.19,0,0,0,.08.25.26.26,0,0,0,.29,0,3.15,3.15,0,0,1,.42-.25,9,9,0,0,0,1.14-.63c.09,0,.14-.09.23-.09a.23.23,0,0,0,.12-.06c.14-.2.4-.26.57-.43s.42-.28.65-.37a.72.72,0,0,0,.17-.14,4.19,4.19,0,0,1,.37-.28.46.46,0,0,1,.28-.06.42.42,0,0,1,.34-.4c.14-.06.23-.2.31-.28a4.7,4.7,0,0,1,.82-.71.39.39,0,0,0,.2-.23s0,0,.06-.06c.28-.22.51-.54.79-.77a3.66,3.66,0,0,0,.31-.37c.06-.06.11-.17.23-.2a.06.06,0,0,0,.06-.06c.14-.31.43-.48.62-.71,0,0,.08-.09.06-.11a.25.25,0,0,1,.14-.23c.14-.14.23-.34.4-.45a.59.59,0,0,0,.23-.31.29.29,0,0,1,.12-.23s.05-.09.05-.11a.22.22,0,0,1,.08-.23c.14-.14.17-.31.28-.45a1.27,1.27,0,0,0,.2-.45c0-.06.11-.11.17-.17a.64.64,0,0,1,0-.4c.17-.34.2-.74.34-1.08,0-.06,0-.08,0-.14,0-.37,0-.74.06-1.13a1.56,1.56,0,0,0-.06-.51c-.08-.26-.08-.54-.17-.77a3.36,3.36,0,0,0-.28-.57s-.06-.06-.06-.09c-.06-.22-.28-.31-.45-.42a4.26,4.26,0,0,0-.91-.43c-.11,0-.2-.09-.31-.12s-.2-.06-.31,0l-.34,0a7.66,7.66,0,0,1-.79-.11c-.17-.06-.31.06-.48,0-.34.09-.71.09-1.05.14-.11,0-.26,0-.4.06l-.09-.17a.56.56,0,0,0-.51.11.36.36,0,0,1,.17.14c-.34.08-.62.14-.94.2v0l-.71.26c-.09-.08-.09-.17,0-.17a1,1,0,0,0,.57-.37s0-.06,0-.11h0a.19.19,0,0,1-.2.11,13.46,13.46,0,0,0-2.84,1.48,1.21,1.21,0,0,0-.43.34,1.54,1.54,0,0,0,.6-.34c.06-.06.2-.09.28-.14l1.42-.68a.85.85,0,0,1,.25-.09c0,.09,0,.14-.08.17s-.48.23-.71.37l-1,.51a2.89,2.89,0,0,1-.48.28c-.09.17-.28.22-.4.34l-.31.17c-.09,0-.11.17-.26.17a.1.1,0,0,1-.06,0c-.11.25-.37.34-.57.51a5,5,0,0,1-.59.48c-.2.14-.34.31-.51.45l-1.08,1.08c-.48.51-.94,1-1.39,1.59s-.8,1.11-1.16,1.67a8.75,8.75,0,0,0-.82,1.65,2.56,2.56,0,0,0-.2,1.3c0,.17.06.31.26.34a.25.25,0,0,0,.26.17c.08,0,.11.11.08.2s0,.08-.06.14a4.61,4.61,0,0,0-.65.11.35.35,0,0,1-.42-.17.67.67,0,0,1-.17-.26,2.09,2.09,0,0,1-.28-1.22c0-.23,0-.43.11-.62,0,0,0-.09,0-.14a2.1,2.1,0,0,1,.26-.82s.06-.06.08-.08a.06.06,0,0,0,.06-.06c0-.31.26-.48.37-.74a5,5,0,0,1,.42-.74c.2-.28.4-.6.6-.91l.26-.43a.73.73,0,0,1,.28-.37l.08-.09a3.08,3.08,0,0,1,.6-.88l.6-.71a2,2,0,0,0,.2-.34A3.76,3.76,0,0,1,187,33c.06-.09.23,0,.2-.17s.17-.14.23-.23c.09-.26.37-.34.54-.54a4.93,4.93,0,0,1,.54-.54c.34-.26.62-.54,1-.8.51-.37,1-.71,1.59-1a11.21,11.21,0,0,0,1.45-.88c.08-.06.2-.06.31-.11a2.84,2.84,0,0,1,.31-.17.43.43,0,0,1,.2-.05s.11,0,.14-.09.14-.06.23-.08.2-.08.28-.14a1.74,1.74,0,0,0,.34-.11c.08-.06.2,0,.31-.06s.17-.06.26-.08l.2-.09a.31.31,0,0,1,.14,0c.14,0,.28,0,.4-.11l.08,0c.45,0,.88-.08,1.33-.14.11,0,.17-.09.31-.06s.28-.08.43,0a2.54,2.54,0,0,0,.45,0v0c.06,0,.09.06.11.06a4,4,0,0,1,1.42.26.64.64,0,0,0,.4,0c0,.08,0,.14.09.14s.2-.06.17-.17c.17-.06.2.14.34.14a1.13,1.13,0,0,1,.34.08c.08.06.14,0,.23.06s.28,0,.4.17.06,0,.08,0,.11,0,.11.05.08.14.14.14a2.39,2.39,0,0,1,.57.34c.11.09.11.23.2.31s.23.17.28.26a1.33,1.33,0,0,1,.28.51.21.21,0,0,0,0,.14c.28.2.28.51.4.8,0,.06,0,.11,0,.17a.42.42,0,0,0,.11.34.42.42,0,0,1,0,.48h0s0,0,0,0l0,0a1.24,1.24,0,0,1,.17.63c-.11,0-.11-.11-.17-.17l0,0v0c-.11.28-.11.28.17.34.09.11,0,.25,0,.4s-.09-.06-.09-.09,0-.14,0-.2S203.94,32.74,203.94,32.79ZM183,40.29a.63.63,0,0,0,0,.6A1.41,1.41,0,0,0,183,40.29Zm.77,1.5c-.14-.26-.14-.26-.43-.4a.51.51,0,0,0,.17.37C183.56,41.85,183.62,41.85,183.76,41.79Zm.74-3.86a1.72,1.72,0,0,1,.14-.34l-.14.09c-.12.11-.26.17-.26.37s-.06.09-.11.11-.08,0-.11,0c-.05.2-.23.31-.17.57a.77.77,0,0,1-.06.2c-.06.14-.11.26-.17.4a2.18,2.18,0,0,0-.14,1.19,4.62,4.62,0,0,1,.42-1.48C184.08,38.67,184.3,38.3,184.5,37.93Zm.4-.77c-.17.11-.26.23-.23.4C184.87,37.36,184.87,37.36,184.9,37.16Zm.37-.48-.09.08a.67.67,0,0,0-.14.11C185.21,36.88,185.21,36.85,185.27,36.68Zm-.2.31v0a.1.1,0,0,1,0-.09V37S185,37,185.07,37Zm10.7-7.86c.06,0,.11-.06.17-.06a1.11,1.11,0,0,0-.43,0,12.32,12.32,0,0,0-4.26,1.7c-.57.37-1.08.77-1.62,1.19a6.7,6.7,0,0,0-.68.57c-.31.34-.74.6-1.05,1,0,0,0,.06-.06.06a4.49,4.49,0,0,0-.74.71c-.54.68-1.08,1.36-1.65,2l-.17.34a.65.65,0,0,0,.23-.25,21.21,21.21,0,0,1,2.3-2.5l.94-.85a21.65,21.65,0,0,1,2-1.64,15.87,15.87,0,0,1,3.43-1.82C194.69,29.42,195.23,29.28,195.77,29.13ZM189.41,49c0,.45,0,.88,0,1.33s0,.68-.06,1a8.92,8.92,0,0,1-.09,1.22c-.06.31,0,.34-.17.51a.8.8,0,0,1,0-.23V51.38c0-.14,0-.31.06-.48a3.45,3.45,0,0,0,0-.54c0-.17,0-.34.09-.51s0-.06,0-.06,0-.28,0-.43.14-.31.06-.48C189.38,48.86,189.41,48.91,189.41,49Zm-.14-.43a.79.79,0,0,0,0-.37c0-.08.06-.11.14-.06a.84.84,0,0,1-.09.57C189.32,48.66,189.27,48.6,189.27,48.57Zm1.62-17.08a.1.1,0,0,0-.06,0,.38.38,0,0,0-.11.09s0,0-.06,0l0,0ZM190.8,41.9v0s0,0,0,0v0Zm3.69,1.79c-.06,0-.14,0-.2.06l-.34.2a24.17,24.17,0,0,1-2.27,1.13.47.47,0,0,0-.2.11c0,.08.06.14.11.08.37-.2.77-.31,1.11-.54a6.18,6.18,0,0,1,.6-.31,8.44,8.44,0,0,0,1.11-.62S194.46,43.72,194.49,43.69Zm-1-13.45h.2v0C193.58,30.27,193.52,30.24,193.47,30.24Zm.37,13.62,0,0S193.81,43.83,193.84,43.86Zm.06-.06h.17C194,43.75,193.92,43.75,193.89,43.8Zm3.52-2.53a.57.57,0,0,0-.14.08,2,2,0,0,1-.43.31,3.44,3.44,0,0,0-.65.48.38.38,0,0,1-.11.09,3.14,3.14,0,0,0-.79.57,1.31,1.31,0,0,1-.23.17l-.94.68a.11.11,0,0,0-.06.14,6,6,0,0,1,.6-.37,1.82,1.82,0,0,1,.62-.31s.06,0,.08-.06.37-.31.54-.43a8.84,8.84,0,0,0,1.45-1.25S197.44,41.33,197.41,41.28Zm-2.67-11.75-.34,0c0,.06.08.09.14.14S194.72,29.62,194.74,29.53Zm-.17.4v-.05a.1.1,0,0,0,0-.06h0v.08A.11.11,0,0,0,194.57,29.93Zm0,13.71c-.06,0-.09,0-.09.06h0Zm.45-14s-.11-.06-.17.06A1,1,0,0,1,195.06,29.67Zm.68,0h-.08v-.06h.06A.09.09,0,0,0,195.74,29.64Zm.57-.26a1.21,1.21,0,0,0-.45.09C196.08,29.53,196.13,29.53,196.31,29.39Zm2.64-.06c0-.06-.06-.09-.09-.09a.49.49,0,0,0-.28,0,12.61,12.61,0,0,0-1.48,0c-.23,0-.42.06-.71.11a.66.66,0,0,0,.45.05,1.25,1.25,0,0,1,.31-.05l.34,0A4.12,4.12,0,0,1,198.94,29.33Zm-.68-1.84a.18.18,0,0,1,.26-.09,1.13,1.13,0,0,0,.42.05,2.77,2.77,0,0,1,.68,0,2.89,2.89,0,0,1,.71.23,1.31,1.31,0,0,1-.14.06h0a5.39,5.39,0,0,0-1.51-.28Zm1,1.81c-.14-.06-.26-.09-.37,0C199.06,29.33,199.17,29.39,199.31,29.3Zm.45.09a0,0,0,0,1,0,0h0s0,0,0,.05S199.74,29.39,199.77,29.39Zm.42-1.62v0Zm1,2.44s0-.06,0-.06a.64.64,0,0,0-.14-.09C201,30.13,201.07,30.24,201.16,30.21Zm.17.17,0,0s0,0,0,0Zm.91-1.05s0-.09-.06-.11a3.08,3.08,0,0,1-.34-.28,1.1,1.1,0,0,0-.54-.29c.25.23.51.45.74.68C202.09,29.36,202.18,29.33,202.24,29.33Zm-.54,1.87-.11-.11s-.09,0-.09.06,0,.09.06.09S201.64,31.23,201.7,31.21Zm.06.59h0v0Zm.74-2.18c-.08-.14-.11-.23-.26-.25C202.24,29.5,202.32,29.56,202.49,29.62Zm-.2,6.07v0a0,0,0,0,1,0,0v0S202.29,35.72,202.29,35.69Zm.17-.54a1.43,1.43,0,0,0-.17.48s.06,0,.06,0a1.65,1.65,0,0,0,.14-.4A.09.09,0,0,0,202.46,35.15Z" style="fill:#3f3616"/><path d="M208.62,45.45a19.72,19.72,0,0,1-.88-3.37c0-.31-.09-.63-.14-1a.25.25,0,0,0-.11.22c0,.34,0,.68.09,1s.4,1.9.45,2.13a.87.87,0,0,0,.09.28,1.66,1.66,0,0,1,.14.51,1.78,1.78,0,0,0,.2.48c0,.06.12.14.09.2a.49.49,0,0,0,.2.43.62.62,0,0,1,.23.31,1.71,1.71,0,0,0,.6.76,2.17,2.17,0,0,0,.31-.91c.26-1,.65-5.87,1.22-7.09.17-.4.37-.8.57-1.19A.44.44,0,0,1,212,38a3.57,3.57,0,0,1,.57-.14,2.57,2.57,0,0,0,.46-.08,1.37,1.37,0,0,0-.09-.2c.26,0,.34.31.6.31,0-.09-.09-.14-.11-.23s.08,0,.11,0c.2.08.42.14.54.37s.2.11.26.17a3.77,3.77,0,0,1,.54.62,6.08,6.08,0,0,1,.74,1.7,4.2,4.2,0,0,1,.14,1.33c0,.23,0,.45,0,.68s.06.48-.09.71v.08a.87.87,0,0,1-.06.6c0,.06-.06.11,0,.14.14.34-.06.65,0,1,0,.08-.11.17,0,.31s0,.17,0,.26a1.42,1.42,0,0,1-.08.6.64.64,0,0,0,0,.51.79.79,0,0,1,0,.26.66.66,0,0,0,0,.57s0,.14,0,.23a1.61,1.61,0,0,1-.09.14c.09.09,0,.2,0,.25s0,.23.06.34,0,.23-.06.31a.56.56,0,0,0,0,.14.59.59,0,0,1-.06.57c.06.06.09.14.14.2a.64.64,0,0,0,0,.11c-.17.2,0,.4,0,.57a3,3,0,0,1,.06.48,2.34,2.34,0,0,0,.23.91,3.71,3.71,0,0,0,.34.4,1.16,1.16,0,0,1,.4-.17s0,.05.06.11a1.94,1.94,0,0,0,.68-.51,6.37,6.37,0,0,0,1-1.76c.11-.25.2-.48.28-.74s.23-.25.23-.45a1.83,1.83,0,0,1,.17-.46c.06-.17.09-.34.14-.51s.09-.31.11-.46c.12-.4.26-.79.34-1.19.14-.65.29-1.31.43-2a0,0,0,0,1,0,0c.08,0,.14-.11.25-.06a.29.29,0,0,1,.14.28,3,3,0,0,1-.09.51c-.17.71-.37,1.42-.57,2.13s-.25,1.16-.4,1.76a7.94,7.94,0,0,1-.43,1.62,1.91,1.91,0,0,0-.17.57,2.69,2.69,0,0,1-.28.79,4.9,4.9,0,0,1-1.45,1.79,1.36,1.36,0,0,1-.54.26,1.45,1.45,0,0,0-.37.08,1.08,1.08,0,0,1-.94,0,.11.11,0,0,0-.08,0,1,1,0,0,1-.88-.51.87.87,0,0,0-.14-.17.67.67,0,0,1-.14-.23c-.09-.17-.14-.34-.22-.51s-.12-.37-.29-.48a4.71,4.71,0,0,1-.4-1.22,1.21,1.21,0,0,0-.11-.45,1.07,1.07,0,0,1,0-.43,2.09,2.09,0,0,0,0-.4,1.9,1.9,0,0,0-.06-.37,1.34,1.34,0,0,1,0-.48,3.08,3.08,0,0,0,0-.88.09.09,0,0,1,0-.11,1.83,1.83,0,0,0,0-.68,1.89,1.89,0,0,1,.06-.68c-.14-.31.09-.65,0-1,.14-.31,0-.65.14-1a9.47,9.47,0,0,1,.06-1.28,4.78,4.78,0,0,1,.06-.62c0-.11,0-.26,0-.4a6.27,6.27,0,0,0-.08-1.62,3.13,3.13,0,0,0-.43-1.19c-.08-.12-.28-.37-.54-.06-.65,1.31-1,6.13-1.13,6.58s-.09.62-.14.94a4.83,4.83,0,0,1-.34,1.25,3.58,3.58,0,0,1-.37.65c0,.06-.09.12-.11.12a1.35,1.35,0,0,1-.94.11,2,2,0,0,1-.62-.29c-.26-.2-.57-.31-.85-.51a.71.71,0,0,1-.31-.26,3,3,0,0,0-.62-.82,2,2,0,0,1-.51-.94,4.14,4.14,0,0,1-.37-.82,25.79,25.79,0,0,1-.6-2.64A5.23,5.23,0,0,1,205,41c-.12-.26,0-.54-.06-.79a.7.7,0,0,1,0-.34c0-.14,0-.28,0-.43-.06-.31-.09-.63-.11-.94a.57.57,0,0,0,0-.57s0-.06,0-.06a1,1,0,0,0,.06-.57,1.74,1.74,0,0,1,.09-.54.59.59,0,0,0,.14-.08.3.3,0,0,0,.06-.14c-.2-.12-.14-.29-.06-.51,0,.11,0,.2.06.28a4.29,4.29,0,0,0,0-.6c.23-.06.2-.28.2-.43a2.86,2.86,0,0,1,.11-.71c0-.06,0-.14,0-.2a3.31,3.31,0,0,1,.11-.57,1,1,0,0,1,.2-.31,1.48,1.48,0,0,1-.08-.2.3.3,0,0,0,.14-.4.33.33,0,0,1,0-.23,2.29,2.29,0,0,0,.23-.62c0-.06.09-.14.14-.23a4.58,4.58,0,0,1,.77-1.22,4.46,4.46,0,0,0,.57-.71.75.75,0,0,1,.17-.14c.17-.2.37-.37.57-.57a1.39,1.39,0,0,1,.45-.23.91.91,0,0,1,.85.11l.31.09c.11.06.23.08.28.2a.81.81,0,0,1-.25-.06c0,.14.06.17.14.17s.08-.09.11-.11.26.17.4.26.08.17.14.23-.11.11-.09.23a1,1,0,0,1,.11.26A2.51,2.51,0,0,1,211,32c-.08.48-.23,1-.31,1.47a11.69,11.69,0,0,1-.54,1.87c-.09.2-.11.43-.2.65s-.09.26-.11.37-.14.31-.2.45a15.84,15.84,0,0,1-.94,2c-.26.48-.48,1-.71,1.45a1.08,1.08,0,0,0-.11.57,7,7,0,0,1,.06,1.33s0,.09,0,.11a17.78,17.78,0,0,1,.51,2.16c.06.23.14.48.2.74l.11.2c0,.06,0,.11,0,.17h0A.41.41,0,0,1,208.62,45.45ZM205,37.7v0Zm1.11-3c.09-.26.14-.45.2-.68a2.4,2.4,0,0,0,.11-.43c0-.09,0-.12-.11-.12A3.26,3.26,0,0,0,206.12,34.7Zm.31-1.47h0v0Zm.91,5.05c0,.4,0,.79,0,1.19,0,.09.06.2.06.31a.31.31,0,0,0,.2-.31c0-.57-.06-1.11-.09-1.76A1.68,1.68,0,0,0,207.34,38.27Zm.14-.71a.64.64,0,0,0,.09-.51A.44.44,0,0,0,207.48,37.56Zm.2-1.31s-.08-.08-.11-.06a.13.13,0,0,0-.09.09c0,.12.06.17.17.2-.08.11-.17.23-.11.37a1.94,1.94,0,0,1,.26-.17,4.27,4.27,0,0,1,0,1.05c-.06.28,0,.57,0,.85,0,.06,0,.12,0,.14a.13.13,0,0,0,.14.14c.11-.23.23-.48.34-.74.51-1.16,1-2.38,1.36-3.6a4.09,4.09,0,0,0,.17-.62c.11-.54.23-1,.31-1.59a2.91,2.91,0,0,0,0-.71,1.41,1.41,0,0,0-.6-1.17c-.17-.14-.17-.14-.37.06a1.44,1.44,0,0,1,.11.17,2.94,2.94,0,0,0-.65.91.3.3,0,0,0-.09.2,5.07,5.07,0,0,1-.28.94s0,0-.06.06H208c-.09.34-.09.34.11.62,0,.11-.06.2-.09.31s-.11.08-.2,0a.17.17,0,0,1-.11,0c.09.28.28.54.09.85a1.49,1.49,0,0,0,.17.23,2.19,2.19,0,0,1-.34.2c-.06.06-.11.11-.06.23l.31.09a.4.4,0,0,1,0,.26c0,.11-.11.28-.06.37s0,.28,0,.4,0,.17-.26.17A.54.54,0,0,0,207.68,36.26Zm-.08-.34s-.06.06-.06.08.06,0,.11.06l.06-.06Zm.08-.48c0,.06-.11.12-.11.17a.24.24,0,0,0,.08.23c.06,0,.11-.08.14-.2s0-.11,0-.17A.1.1,0,0,0,207.68,35.43Zm0-1.08a.1.1,0,0,0-.06,0,.11.11,0,0,0,0,.06.1.1,0,0,1,.06,0S207.68,34.38,207.68,34.36Zm.06,13.14s0,0,0,.06h0s0-.06,0-.09ZM208.11,34s0,0,0-.06h0l0,0Zm0-1.08V33s0,0,0,0A0,0,0,0,1,208.13,32.91Zm.4-3.26a.83.83,0,0,0-.4.54l.31-.23c.12-.06.23-.14.34-.2C208.65,29.62,208.62,29.62,208.53,29.64Zm.43-.43c-.11.06-.23.09-.26.26l.23.08.43-.34A.4.4,0,0,0,209,29.22Zm-.11,16.63a.25.25,0,0,1-.12-.31h0C208.84,45.59,208.82,45.71,208.84,45.85Zm.77-16.54c-.37.11-.37.11-.48.34l.74-.09Zm1.42,1c0,.09.06.17.09.28a2,2,0,0,1-.34-.71C210.94,30,211,30.16,211,30.3Zm.14.94a0,0,0,0,0,0,0s0,0,0-.06v.09Zm.91,7.35v.09s.06,0,.06-.06A.1.1,0,0,0,212.08,38.58Zm1.33-.4a0,0,0,0,0,0,0v-.06h0Zm.43.34a0,0,0,0,0,0,0s.06.06.08.06v0Zm.48,1.7a9.58,9.58,0,0,0,.14,1.28A1.83,1.83,0,0,0,214.32,40.23Zm.14,7.8c0-.09,0-.14-.06-.09s0,.11,0,.14S214.46,48.06,214.46,48Zm.14,2h0v0Zm0,.4c.06.42.11.82.17,1.22A.36.36,0,0,0,215,52a7.52,7.52,0,0,0-.37-1.7C214.63,50.42,214.6,50.44,214.6,50.47Zm.63,2.35h0v.06l0,0Zm3-1.19a3,3,0,0,1-.82.76c-.09.06-.17.08-.17.2a.47.47,0,0,0,.34,0,2.08,2.08,0,0,0,.85-1.11s0,0,0-.06,0,0,0,0,0,.06,0,.09S218.29,51.58,218.24,51.64Z" style="fill:#3f3616"/><path d="M222.63,55.64a19.17,19.17,0,0,1,1.45-1.56l.71-.74A9.7,9.7,0,0,1,226,52.17a6.8,6.8,0,0,0,.51-.45c0-.05.11-.11.09-.17-.06-.26.14-.43.14-.65s.09-.48.09-.74,0-.45.06-.68a.85.85,0,0,0-.11-.51.64.64,0,0,1-.05-.4,4.08,4.08,0,0,0,0-.82,10.13,10.13,0,0,1-.09-1.62,3.76,3.76,0,0,0-.08-.79.31.31,0,0,1,.06-.23c0-.08.06-.17,0-.23s0-.31-.17-.46,0-.14,0-.23a1.08,1.08,0,0,0,0-.6,1.55,1.55,0,0,1,0-.37.29.29,0,0,0-.11-.2,1.19,1.19,0,0,0,0-.31c0-.37-.09-.74-.14-1.08a.29.29,0,0,0-.06-.14,5.31,5.31,0,0,0-.26,1.16.53.53,0,0,0-.25-.06l-.34,1.28c-.11.43-.26.85-.37,1.25a4.58,4.58,0,0,0-.23,1.08c-.06.51-.2,1.05-.28,1.56a1,1,0,0,1-.11.23c-.2.43-.51.8-.74,1.22a1.84,1.84,0,0,1-.31.37,2.21,2.21,0,0,0-.34.37.74.74,0,0,1-.37.22,2.43,2.43,0,0,1-1.28,0,1.28,1.28,0,0,1-.76-.48.54.54,0,0,0-.29-.23,1,1,0,0,1-.45-.4c-.17-.17-.26-.37-.43-.54a1.3,1.3,0,0,1-.14-.28,4.07,4.07,0,0,1-.45-1.53.55.55,0,0,0-.09-.29,1.37,1.37,0,0,1-.17-.88c.06-.45.14-.94.2-1.42,0-.05.06-.14,0-.17-.17-.2-.06-.37,0-.57a3.26,3.26,0,0,1,.14-.51c.17-.43.4-.85.57-1.31a.68.68,0,0,1,.62-.43c.2,0,.4-.06.57-.06a.28.28,0,0,1,.31.23c0,.06.06.11.09.17A.52.52,0,0,1,221,42a.86.86,0,0,0-.06.37,2.78,2.78,0,0,1,0,1.08,2.08,2.08,0,0,1,0,.94.17.17,0,0,0,0,.11c.06.09,0,.2.06.31,0,.51,0,1,0,1.5a3.14,3.14,0,0,0,.17.57,6,6,0,0,1,.23.65c0,.06.06.09.08.14a2.07,2.07,0,0,1,.48.63c.17.05.31.08.4-.09s.23-.08.23-.25.11-.2.14-.29a7.2,7.2,0,0,1,.34-.82c0-.2.09-.37.11-.54s0-.4.14-.57a2.81,2.81,0,0,1,.23-.8,1,1,0,0,0,.09-.31.66.66,0,0,1,.14-.29.18.18,0,0,0,0-.17v-.11c.17-.45.11-.94.28-1.39,0-.12,0-.26,0-.37.17-.51.2-1,.4-1.56s.28-.77.45-1.13a.8.8,0,0,1,.62-.57h0a.6.6,0,0,1,.79.09,1.22,1.22,0,0,1,.4.45c.09.2.17.37.26.57a2.21,2.21,0,0,1,.26.6c0,.06.06.08.09.14a.36.36,0,0,1,.08.34s0,.11,0,.14.06.28.2.37a5.71,5.71,0,0,0,.29,1.16c0,.09,0,.2,0,.31s0,.25.17.31a.65.65,0,0,0-.08.14c.05.4.14.79.2,1.19a1,1,0,0,1,.06.29,4.2,4.2,0,0,0,.11,1.19c0,.05,0,.14.06.17s.11.26.14.4c0,.51.09,1,.14,1.5,0,.12.09.23.12.37l.17-.11c.31-.4.62-.77.91-1.16s.71-1,1-1.45.57-1,.85-1.45a7.41,7.41,0,0,0,.54-1.05l.6-1.28c.09-.17.23-.31.31-.45.23.06.23.06.4.4.08,0,.08-.09.14-.14s.14-.14.26-.09.14.12.12.2a5.92,5.92,0,0,1-.2.62c-.14.28-.29.6-.43.88s-.28.57-.43.88a1.86,1.86,0,0,1-.2.31c-.22.34-.48.65-.71,1a.77.77,0,0,0-.09.17.74.74,0,0,1-.23.34.18.18,0,0,0-.06.26.69.69,0,0,0-.23.17.08.08,0,0,0,0,.11c0,.17-.09.28-.14.43a.73.73,0,0,1-.23,0c0,.34,0,.34-.26.65s-.26.4-.4.6c0,0,0,.06,0,.09s.08,0,.11,0l.14-.08a.22.22,0,0,1,0,.08c-.23.31-.42.62-.68.94l-.77.94a.6.6,0,0,0-.17.48c0,.71.09,1.39.09,2.1a6,6,0,0,1,0,1,2.42,2.42,0,0,1-.06.77c.09.2,0,.4,0,.63a.83.83,0,0,1,0,.37v.48c0,.14-.06.28-.06.43a9.92,9.92,0,0,1-.11,1.31c-.06.34-.14.68-.23,1s-.11.57-.14.85-.14.34-.09.54a1.16,1.16,0,0,1-.14.54.86.86,0,0,0-.06.37.37.37,0,0,1,0,.17c-.09.31-.11.65-.23,1a4.76,4.76,0,0,1-.43,1.22s0,0,0,0c0,.23-.11.31-.26.43a1.41,1.41,0,0,1-.28.88c-.06.09-.08.23-.14.31a1.51,1.51,0,0,1-.4.54c-.06,0-.09.11-.14.17a2.8,2.8,0,0,1-.62.8,7.3,7.3,0,0,0-.68.68c-.11.14-.23.28-.34.4s-.23,0-.26.17-.14.2-.25.26-.12-.2-.2-.31-.14,0-.2.09-.25.2-.4.2-.43.23-.68.2h-.11a.47.47,0,0,1-.59-.06l-.26.09a.78.78,0,0,1-.43-.37c0-.08-.17-.14-.28-.17a2.07,2.07,0,0,1-.93-.77,4.9,4.9,0,0,1-.63-1.22s0-.06-.06-.09a1,1,0,0,1-.29-.79,10.71,10.71,0,0,1-.17-1.62,4.14,4.14,0,0,1,.14-1.31c-.06-.31.14-.57.14-.85a3,3,0,0,1,.23-.71,6.86,6.86,0,0,0,.34-1.08c.17-.28.2-.62.37-.91a3.78,3.78,0,0,0,.26-.45,1.63,1.63,0,0,1,.57-.79.51.51,0,0,1,0-.23.9.9,0,0,0,.28-.48c0-.11.17,0,.23-.08a.1.1,0,0,0-.06,0s0,0,0,.06,0-.06,0-.08.09-.09.06-.09c-.09-.17,0-.28.14-.37l.09.09a3.65,3.65,0,0,1,.28-.4v0c0-.06.06-.14.08-.2A.29.29,0,0,0,222.63,55.64Zm-1.76,9.56s-.06-.06-.11-.06-.06.06-.06.09c0,.34.17.57.4.91C221,65.77,221,65.48,220.87,65.2ZM225,63.72a1,1,0,0,1,.06-.31c0-.06.14-.11.14-.14s.06-.31.09-.45a.3.3,0,0,1,.22-.31c.11,0,0-.14,0-.2s.17-.08.17-.2-.09-.09-.12-.11.09,0,.09-.06.11-.28.09-.45a.43.43,0,0,1,.23-.54.78.78,0,0,1-.06-.34,3.19,3.19,0,0,0,.17-.91,6.07,6.07,0,0,1,.14-.68,1.35,1.35,0,0,1,.06-.34,3.66,3.66,0,0,0,.2-1.22.24.24,0,0,1,.09-.23s0-.08,0-.11.06-.23.09-.34-.09-.17-.12-.25.23-.17.09-.31c0-.14,0-.28,0-.4a.53.53,0,0,0,0-.45s0-.06,0-.08a3.12,3.12,0,0,1,.17-.31,2.31,2.31,0,0,0-.11-.28.13.13,0,0,1,0-.14c.11-.14.06-.26,0-.4a.29.29,0,0,1,.06-.25c.08-.09.06-.2,0-.31a2.55,2.55,0,0,0-.54.57,1,1,0,0,1-.37.4c-.11.09-.11.25-.28.31,0,.2-.14.31-.26.45-.31.43-.65.79-1,1.22-.14.17-.26.37-.4.57a7.2,7.2,0,0,0-.57.74c-.28.37-.51.8-.77,1.19A12.9,12.9,0,0,0,222,60.4a15.11,15.11,0,0,0-.54,1.59,6.38,6.38,0,0,0-.17,2.84,3.16,3.16,0,0,0,.82,1.84c0,.06.09.09.17.11a.73.73,0,0,0,.43,0c.28-.14.59-.23.88-.37s.28-.29.45-.34.26-.28.4-.4a1,1,0,0,0,.45-1,.16.16,0,0,1,.06-.14.16.16,0,0,0,.08-.11.35.35,0,0,1,.14-.28.86.86,0,0,0,.14-.2.21.21,0,0,0-.06-.12s-.06,0-.09.06,0,0,0,.06S225.07,63.81,225,63.72ZM221.64,67c-.11-.14-.11-.14-.34-.26C221.41,67,221.41,67,221.64,67Zm.06-6.67a.11.11,0,0,0,0,.06h0s0-.06,0-.09A0,0,0,0,1,221.69,60.37Zm.37-.65h0v0h0Zm.23-10.22h.23v0h-.23ZM223.91,68c.17-.11.4-.2.48-.43-.09,0-.11,0-.14,0a5.28,5.28,0,0,1-1,.23,1.73,1.73,0,0,0-.71.31v.09A1.67,1.67,0,0,0,223.91,68Zm1.53-4.23a3.76,3.76,0,0,0,.37-1.08c-.43.77-.46.77-.46,1.11A.11.11,0,0,0,225.44,63.72Zm.42-1.33h0v0h0Zm.68-18.08h0s0,0,0,.06Zm3.66,5.19c-.06,0-.11,0-.14,0s-.11.11-.14.31c.11-.14.2-.23.29-.34s.2-.2.22-.34.11-.11.09-.23a.22.22,0,0,0-.09.23A.28.28,0,0,0,230.21,49.51Z" style="fill:#3f3616"/><path d="M235,33.93c.09-.17.14-.31.23-.45a.52.52,0,0,1,.22-.31.29.29,0,0,0,.11-.14c0-.06,0-.14.09-.2a5.83,5.83,0,0,0,.45-.65,6.27,6.27,0,0,1,.45-.71,5,5,0,0,1,.82-1l.51-.54c.2-.2.43-.4.65-.6l.2-.2c.14,0,.31,0,.45-.05s0,0,.06,0,.23.14.37.09a3.12,3.12,0,0,1,.4-.09s.06,0,.09,0a.57.57,0,0,1-.23.08.94.94,0,0,0,.94.63c-.11-.23-.31-.28-.51-.37,0-.06,0-.11,0-.17a1.42,1.42,0,0,1,.82,1.59,6.63,6.63,0,0,1-.74,2.18c-.2.4-.42.79-.65,1.16a1.38,1.38,0,0,0-.11.31.82.82,0,0,0,.26.06,2.37,2.37,0,0,1,.62-.08,7.58,7.58,0,0,1,.77-.09,1.53,1.53,0,0,0,.37,0c.28-.11-.31,0,.34-.09a.74.74,0,0,0,.57-.28.44.44,0,0,1,.17-.08,2.21,2.21,0,0,1-.14.25h.23c.54-.08,1.08-.17,1.62-.23a2,2,0,0,1,.4-.06c.23,0,.31.11.4.34s.2.34.06.57a.38.38,0,0,0-.17-.06c-.14.09,0,.2,0,.29a.06.06,0,0,1-.06.05.2.2,0,0,0-.14,0c-.11.06-.17.17-.31.06s-.11,0-.14,0-.14.06-.14,0-.23-.06-.34-.06a18.45,18.45,0,0,0-2.64.46s-.09,0-.12,0c-.23-.17-.48-.09-.71-.06-.43,0-.85.11-1.28.17-.09,0-.14,0-.2,0-.2.31-.37.6-.57.88a6,6,0,0,0-.62,1.22c0,.06-.09.11-.12.17-.26.51-.57,1-.79,1.53a13.85,13.85,0,0,0-.57,1.53c-.26.77-.48,1.56-.71,2.36a1.49,1.49,0,0,0-.11.71s0,.06,0,.06-.06.14,0,.26,0,.2,0,.31v.34a1.52,1.52,0,0,0-.17.23s0,.06,0,.06a.32.32,0,0,1,.2.26,1.47,1.47,0,0,1,0,.85,1.08,1.08,0,0,0,0,.43c0,.06.09.11.17.2s0,.51.08.77c0,.06,0,.17-.06.23s-.09.2.06.34a.4.4,0,0,1,.09.12,2.19,2.19,0,0,1-.12.31c.09.06.14.11.2.14a1,1,0,0,0,0,.28c.14.08,0,.31.25.4l-.09.25.09.09s.11.06.09.11,0,.2.06.31.34.54.65.71c.06,0,.11.14.17.23a.3.3,0,0,1,.14,0,1.22,1.22,0,0,0,.88-.34,3.17,3.17,0,0,0,.91-1.42c.22-.57.57-1.13.73-1.7.09-.23.14-.45.23-.65.2-.48,1.73-4.85,1.82-5s.17-.37.25-.4a.66.66,0,0,1,.31,0s.31-.06.17.57-1.9,5.67-2.07,6.41a13.54,13.54,0,0,1-.63,1.68,4.89,4.89,0,0,1-.71,1.3,5.27,5.27,0,0,1-1,1,2.46,2.46,0,0,1-.91.43,1.47,1.47,0,0,1-1.56-.37,5.07,5.07,0,0,0-.85-.68s-.06,0-.14,0c.17.37.54.54.79.8-.06.14-.11.14-.17.11-.26-.17-.51-.31-.74-.48a3,3,0,0,0-.39-.26.44.44,0,0,1-.26-.2c-.12-.17-.31-.31-.34-.54,0,0-.06-.06-.08-.08a.83.83,0,0,1-.28-.51.36.36,0,0,0-.12-.2,5.47,5.47,0,0,1-.48-1.45c0-.17,0-.34-.11-.48s.08-.11.08-.17c-.2-.25-.2-.31,0-.51a1.76,1.76,0,0,1-.22-1.13c0-.17-.06-.31-.06-.45a2.91,2.91,0,0,0-.06-.48.94.94,0,0,1,0-.63.17.17,0,0,0,0-.11,1.87,1.87,0,0,1-.09-.88c0-.6.06-1.16.09-1.73,0-.14.06-.28.09-.45a.83.83,0,0,1,.06-.37c.06-.14,0-.26,0-.37s0-.11,0-.14c.17-.23.06-.51.11-.74s0-.23.06-.31a1.54,1.54,0,0,0,.12-.71.55.55,0,0,1,.2-.43,1,1,0,0,1,.09-.77c.05-.06.05-.14.05-.26a.55.55,0,0,1,.06-.31c.23-.28.14-.71.43-1a.11.11,0,0,0,0-.06v-.34h-.17c-.59.09-.48,0-1.19.14a.56.56,0,0,0-.31.09c-.2.11-.06,0-.28,0a3.22,3.22,0,0,0-.51,0h-.08a1.41,1.41,0,0,0-.68,0l-.68.09a.8.8,0,0,1-.25,0c-.11,0-.17-.11-.09-.23s0-.17,0-.26a1,1,0,0,1,.26-.11s.11-.06.11-.12.26-.23.42-.26c.51-.11,1.05-.2,1.56-.31.2,0,.34-.12.74-.2.57-.08-.14,0,.43-.08l.79-.11.54-.11c.14-.26.26-.51.4-.77a.31.31,0,0,1,.14,0c0-.09.09-.2.11-.28S235,34,235,33.93ZM234.18,49a.42.42,0,0,0,0-.2,10.92,10.92,0,0,1-.4-1.62l-.17-1.28a1.33,1.33,0,0,0,0,.48c.06.54.09,1.11.17,1.64a3.33,3.33,0,0,0,.37,1.11C234.12,49.08,234.18,49.05,234.18,49Zm-.57-8.48v-.11h-.06v.11Zm.77-4v0a.11.11,0,0,0-.06,0c0,.11,0,.23,0,.34s-.11.23,0,.37-.14,0-.14.05a.66.66,0,0,0-.09.31c-.06.23-.11.48-.17.71-.14.59-.2,1.16-.28,1.76v.12c.11,0,.11-.09.11-.14a3.9,3.9,0,0,1,.14-.8c.08-.54.17-1.1.28-1.64,0-.11.09-.26.11-.37s0-.26.06-.37a.46.46,0,0,0,0-.34A.09.09,0,0,0,234.38,36.51Zm-.23,13.11Zm.48,1.56c0-.2,0-.2-.2-.2s-.14-.31.06-.43c0-.06,0-.14-.11-.17l-.17.23c.09.14.06.31.23.37C234.43,51.1,234.52,51.15,234.63,51.18Zm-.09-16.43a.11.11,0,0,0,.09,0,.1.1,0,0,0,0-.06,1.27,1.27,0,0,0-.05-.14C234.55,34.7,234.55,34.72,234.55,34.75Zm.11-.68a1.3,1.3,0,0,0,.12-.2c.06.06,0,.17.11.14A1.28,1.28,0,0,1,234.66,34.07Zm.26-.4s0,0,0,.06a0,0,0,0,1,0,0,.09.09,0,0,1,0-.06Zm1.31,2.9a.16.16,0,0,1,0,.11,4.15,4.15,0,0,0-.11.82,2.71,2.71,0,0,1-.14.65.3.3,0,0,1-.17.14s-.05.06,0,.08a3.38,3.38,0,0,0,.11.43c.06-.11.12-.17.14-.23a6.2,6.2,0,0,1,.63-1.22c.2-.31.37-.65.57-1a1,1,0,0,0,.2-.45,3.58,3.58,0,0,0-1,.14A.82.82,0,0,1,236.22,36.57Zm.37,14.87-.09,0a.39.39,0,0,0,.43.17A2.78,2.78,0,0,1,236.59,51.44ZM237,34.75a.24.24,0,0,0,.12.06l.82-.08a.44.44,0,0,0,.31-.23,3.06,3.06,0,0,1,.34-.68c.11-.2.17-.4.28-.59a4.15,4.15,0,0,1,.26-.54c.08-.2,0-.46.2-.6v0c-.06-.11,0-.17.09-.23a.78.78,0,0,0,.08-.43c0-.11,0-.26,0-.37a1.37,1.37,0,0,1,0-.34c-.17-.08-.31-.14-.45-.06a2.88,2.88,0,0,0-.82.71,2.82,2.82,0,0,0-.51.88c-.06.17-.22.34-.25.54-.26.4-.34.88-.57,1.3a2.39,2.39,0,0,0-.17.54A1.11,1.11,0,0,0,237,34.75Zm.12.43s-.06-.06-.09-.06a.1.1,0,0,0-.06,0s0,0,.06.06Zm.48,17.22h-.06s0,0,.06,0h0S237.64,52.4,237.64,52.4ZM237.73,35h0s0,.05.09.17C237.75,35,237.75,35,237.73,35Zm.94-6c0-.09.11-.14.17-.2s0,.11,0,.17a.25.25,0,0,0,0,.14C238.66,29.11,238.6,29,238.66,29Zm2,1.67c0-.06-.06-.08-.12-.08-.14.28,0,.54,0,.82A1.31,1.31,0,0,0,240.65,30.64Zm3.89,3.77s.06.06.06.08a.43.43,0,0,0,.08-.11.09.09,0,0,1-.06,0S244.56,34.41,244.54,34.41Z" style="fill:#3f3616"/><path d="M248.53,41.88l.65-.14a2.66,2.66,0,0,0,.51-.2c.11-.09.23-.14.28-.28a.46.46,0,0,1,.2-.2c.06.11.11.17.17.28a.21.21,0,0,1,0,.28,6.17,6.17,0,0,1-.68.51,6.63,6.63,0,0,1-1.93.62l-.23.09c-.08,0-.14,0-.2,0a2.21,2.21,0,0,0-.85.09l-.06.06a5.9,5.9,0,0,0,0,.71l-.09.65c0,.06,0,.14,0,.2s0,.4-.06.6c-.14.45-.34.94-.51,1.42A5.33,5.33,0,0,1,245,47.8a.85.85,0,0,1-.14.2,1.22,1.22,0,0,1-.2.31,4.1,4.1,0,0,1-.37.26s-.08-.05-.14-.11a1.2,1.2,0,0,0-.4.37,1,1,0,0,1-.77.46.82.82,0,0,0-.25,0,.62.62,0,0,1-.54,0,4.5,4.5,0,0,1-.65-.28,2,2,0,0,1-.54-.43,6,6,0,0,1-.71-1.16c-.06-.11-.11-.25-.17-.37a.21.21,0,0,1-.06-.14c0-.2-.09-.4-.09-.59s0-.68.06-1.05a5.38,5.38,0,0,1,.37-1.28,1.83,1.83,0,0,1,.14-.34A4.67,4.67,0,0,1,241.72,42a4.32,4.32,0,0,0,.4-.37,3.67,3.67,0,0,1,.85-.54.73.73,0,0,0-.12-.42,1.59,1.59,0,0,1-.11-.71,1.13,1.13,0,0,1,.48-1c.12-.06.17-.2.26-.31a.55.55,0,0,1,.77-.14,4.8,4.8,0,0,1,.54.29,2.44,2.44,0,0,1,1,.93c.14.23.25.48.37.71a2.14,2.14,0,0,1,.14.74c0,.2,0,.43.06.63a.41.41,0,0,0,.06.2A4.47,4.47,0,0,0,248.53,41.88ZM244,48a5.36,5.36,0,0,0,.85-2.35c.12-.85.23-1.68.34-2.53a.42.42,0,0,0,0-.37,3.21,3.21,0,0,1-.43-.25,1.25,1.25,0,0,0-.48-.23,2,2,0,0,0-1,1.22A13.73,13.73,0,0,0,242.8,45v.08c.05.12,0,.23,0,.37s-.08.23-.11.34,0,.23,0,.34a3.7,3.7,0,0,0-.06,1,1.28,1.28,0,0,0,.09.57.8.8,0,0,0,.31.45.79.79,0,0,0,.62.11.22.22,0,0,1,.14,0A1.58,1.58,0,0,0,244,48Zm1.22-6.73a9,9,0,0,0-.28-1.19,1.28,1.28,0,0,0-.77-.85.26.26,0,0,0-.28,0,2.2,2.2,0,0,0,.45,1.5,1.79,1.79,0,0,0,.91.79A.87.87,0,0,0,245.19,41.28Z" style="fill:#3f3616"/><path d="M39.43,28.57A7.86,7.86,0,0,1,45,23.12c3.83-1.2,4.06-3.84,4.06-3.84s-.33,1.89-4.24,2.86-5.11,5.28-5.38,6.43ZM38.91,30s-1.12-8.6,5.9-10.74c4.73-1.45,4.44-2.95,4.44-2.95s4.07,7.95-4.47,9.92A9.25,9.25,0,0,0,38.91,30Z" style="fill:#64913e;stroke:#39b54a;stroke-miterlimit:10;stroke-width:2px;fill-rule:evenodd"/><path d="M20.25,27.29a6.68,6.68,0,0,1,5.92-3.41c12.1.43,12.24,29.25,4,33.31C23,60.73,17.87,53.13,18.61,47.54a10.57,10.57,0,0,1,5.1-8,12.83,12.83,0,0,0-6,3.41c-2.93,3-3.06,6.1-2.79,10.45.21,3.33-.41,4.57-.41,4.57a4,4,0,0,1,2.79.29c1.5.73,4.76,2.76,8.44,2.54,6.79-.4,9.79-8.56,9.79-8.56s1,9.58,6.05,13.58,8.57,1.23,10.61-1.24a15,15,0,0,0,3.2-7.54s-2.31,7.19-7.48,6.89c-3.67-.2-9.11-4.21-9.87-12.85s-.12-14,3.2-17.35c4.89-4.93,12.71-.07,10,7-3,7.81-10.4,3-10.4,3s.81,1.82,4.76,2.61c4.81,1,9.11-4.51,8.71-8.78-.48-5,0-7,0-7a7.78,7.78,0,0,1-4.7-.5,8.82,8.82,0,0,0-8.23,1.23,12.53,12.53,0,0,0-3.67,5.37S36.63,16.84,26.3,18.29c-6.69.94-6.05,9-6.05,9Z" style="fill:#3f3616;fill-rule:evenodd"/><path d="M36,19c-.27-1.16-1.55-5.49-5.38-6.43s-4.24-2.86-4.24-2.86.23,2.65,4.06,3.84A7.86,7.86,0,0,1,36,19Zm.52,1.41a9.26,9.26,0,0,0-5.87-3.77c-8.54-2-4.47-9.92-4.47-9.92s-.29,1.5,4.44,2.95c7,2.15,5.9,10.74,5.9,10.74Z" style="fill:#64913e;stroke:#39b54a;stroke-miterlimit:10;stroke-width:2px;fill-rule:evenodd"/><circle cx="37.37" cy="38.9" r="36.37" style="fill:none;stroke:#3f3616;stroke-miterlimit:10;stroke-width:2px"/></g></g></svg>